<mxfile host="app.diagrams.net" modified="2020-12-18T00:27:58.949Z" agent="5.0 (Windows)" etag="1C96QHDWKgM_5Z6d7aBO" version="14.0.5" type="github">
  <diagram id="xqdhm24p7l_OA2KZzRKB" name="Page-1">
    <mxGraphModel dx="1026" dy="362" grid="1" gridSize="10" guides="1" tooltips="1" connect="1" arrows="1" fold="1" page="1" pageScale="1" pageWidth="850" pageHeight="1100" math="0" shadow="0">
      <root>
        <mxCell id="0" />
        <mxCell id="1" parent="0" />
        <mxCell id="lxXlL9rtx9yhcYXsZA4L-1" value="cars" style="shape=table;startSize=30;container=1;collapsible=1;childLayout=tableLayout;fixedRows=1;rowLines=0;fontStyle=1;align=center;resizeLast=1;" vertex="1" parent="1">
          <mxGeometry x="100" y="160" width="180" height="190" as="geometry" />
        </mxCell>
        <mxCell id="lxXlL9rtx9yhcYXsZA4L-2" value="" style="shape=partialRectangle;collapsible=0;dropTarget=0;pointerEvents=0;fillColor=none;top=0;left=0;bottom=1;right=0;points=[[0,0.5],[1,0.5]];portConstraint=eastwest;" vertex="1" parent="lxXlL9rtx9yhcYXsZA4L-1">
          <mxGeometry y="30" width="180" height="30" as="geometry" />
        </mxCell>
        <mxCell id="lxXlL9rtx9yhcYXsZA4L-3" value="PK" style="shape=partialRectangle;connectable=0;fillColor=none;top=0;left=0;bottom=0;right=0;fontStyle=1;overflow=hidden;" vertex="1" parent="lxXlL9rtx9yhcYXsZA4L-2">
          <mxGeometry width="30" height="30" as="geometry" />
        </mxCell>
        <mxCell id="lxXlL9rtx9yhcYXsZA4L-4" value="id" style="shape=partialRectangle;connectable=0;fillColor=none;top=0;left=0;bottom=0;right=0;align=left;spacingLeft=6;fontStyle=5;overflow=hidden;" vertex="1" parent="lxXlL9rtx9yhcYXsZA4L-2">
          <mxGeometry x="30" width="150" height="30" as="geometry" />
        </mxCell>
        <mxCell id="lxXlL9rtx9yhcYXsZA4L-5" value="" style="shape=partialRectangle;collapsible=0;dropTarget=0;pointerEvents=0;fillColor=none;top=0;left=0;bottom=0;right=0;points=[[0,0.5],[1,0.5]];portConstraint=eastwest;" vertex="1" parent="lxXlL9rtx9yhcYXsZA4L-1">
          <mxGeometry y="60" width="180" height="30" as="geometry" />
        </mxCell>
        <mxCell id="lxXlL9rtx9yhcYXsZA4L-6" value="" style="shape=partialRectangle;connectable=0;fillColor=none;top=0;left=0;bottom=0;right=0;editable=1;overflow=hidden;" vertex="1" parent="lxXlL9rtx9yhcYXsZA4L-5">
          <mxGeometry width="30" height="30" as="geometry" />
        </mxCell>
        <mxCell id="lxXlL9rtx9yhcYXsZA4L-7" value="model" style="shape=partialRectangle;connectable=0;fillColor=none;top=0;left=0;bottom=0;right=0;align=left;spacingLeft=6;overflow=hidden;" vertex="1" parent="lxXlL9rtx9yhcYXsZA4L-5">
          <mxGeometry x="30" width="150" height="30" as="geometry" />
        </mxCell>
        <mxCell id="lxXlL9rtx9yhcYXsZA4L-8" value="" style="shape=partialRectangle;collapsible=0;dropTarget=0;pointerEvents=0;fillColor=none;top=0;left=0;bottom=0;right=0;points=[[0,0.5],[1,0.5]];portConstraint=eastwest;" vertex="1" parent="lxXlL9rtx9yhcYXsZA4L-1">
          <mxGeometry y="90" width="180" height="30" as="geometry" />
        </mxCell>
        <mxCell id="lxXlL9rtx9yhcYXsZA4L-9" value="" style="shape=partialRectangle;connectable=0;fillColor=none;top=0;left=0;bottom=0;right=0;editable=1;overflow=hidden;" vertex="1" parent="lxXlL9rtx9yhcYXsZA4L-8">
          <mxGeometry width="30" height="30" as="geometry" />
        </mxCell>
        <mxCell id="lxXlL9rtx9yhcYXsZA4L-10" value="make" style="shape=partialRectangle;connectable=0;fillColor=none;top=0;left=0;bottom=0;right=0;align=left;spacingLeft=6;overflow=hidden;" vertex="1" parent="lxXlL9rtx9yhcYXsZA4L-8">
          <mxGeometry x="30" width="150" height="30" as="geometry" />
        </mxCell>
        <mxCell id="lxXlL9rtx9yhcYXsZA4L-14" value="" style="shape=partialRectangle;collapsible=0;dropTarget=0;pointerEvents=0;fillColor=none;top=0;left=0;bottom=0;right=0;points=[[0,0.5],[1,0.5]];portConstraint=eastwest;" vertex="1" parent="lxXlL9rtx9yhcYXsZA4L-1">
          <mxGeometry y="120" width="180" height="30" as="geometry" />
        </mxCell>
        <mxCell id="lxXlL9rtx9yhcYXsZA4L-15" value="" style="shape=partialRectangle;connectable=0;fillColor=none;top=0;left=0;bottom=0;right=0;editable=1;overflow=hidden;" vertex="1" parent="lxXlL9rtx9yhcYXsZA4L-14">
          <mxGeometry width="30" height="30" as="geometry" />
        </mxCell>
        <mxCell id="lxXlL9rtx9yhcYXsZA4L-16" value="year" style="shape=partialRectangle;connectable=0;fillColor=none;top=0;left=0;bottom=0;right=0;align=left;spacingLeft=6;overflow=hidden;" vertex="1" parent="lxXlL9rtx9yhcYXsZA4L-14">
          <mxGeometry x="30" width="150" height="30" as="geometry" />
        </mxCell>
        <mxCell id="lxXlL9rtx9yhcYXsZA4L-11" value="" style="shape=partialRectangle;collapsible=0;dropTarget=0;pointerEvents=0;fillColor=none;top=0;left=0;bottom=0;right=0;points=[[0,0.5],[1,0.5]];portConstraint=eastwest;" vertex="1" parent="lxXlL9rtx9yhcYXsZA4L-1">
          <mxGeometry y="150" width="180" height="30" as="geometry" />
        </mxCell>
        <mxCell id="lxXlL9rtx9yhcYXsZA4L-12" value="" style="shape=partialRectangle;connectable=0;fillColor=none;top=0;left=0;bottom=0;right=0;editable=1;overflow=hidden;" vertex="1" parent="lxXlL9rtx9yhcYXsZA4L-11">
          <mxGeometry width="30" height="30" as="geometry" />
        </mxCell>
        <mxCell id="lxXlL9rtx9yhcYXsZA4L-13" value="price" style="shape=partialRectangle;connectable=0;fillColor=none;top=0;left=0;bottom=0;right=0;align=left;spacingLeft=6;overflow=hidden;" vertex="1" parent="lxXlL9rtx9yhcYXsZA4L-11">
          <mxGeometry x="30" width="150" height="30" as="geometry" />
        </mxCell>
        <mxCell id="lxXlL9rtx9yhcYXsZA4L-30" value="customers" style="shape=table;startSize=30;container=1;collapsible=1;childLayout=tableLayout;fixedRows=1;rowLines=0;fontStyle=1;align=center;resizeLast=1;" vertex="1" parent="1">
          <mxGeometry x="480" y="170" width="180" height="130" as="geometry" />
        </mxCell>
        <mxCell id="lxXlL9rtx9yhcYXsZA4L-31" value="" style="shape=partialRectangle;collapsible=0;dropTarget=0;pointerEvents=0;fillColor=none;top=0;left=0;bottom=1;right=0;points=[[0,0.5],[1,0.5]];portConstraint=eastwest;" vertex="1" parent="lxXlL9rtx9yhcYXsZA4L-30">
          <mxGeometry y="30" width="180" height="30" as="geometry" />
        </mxCell>
        <mxCell id="lxXlL9rtx9yhcYXsZA4L-32" value="PK" style="shape=partialRectangle;connectable=0;fillColor=none;top=0;left=0;bottom=0;right=0;fontStyle=1;overflow=hidden;" vertex="1" parent="lxXlL9rtx9yhcYXsZA4L-31">
          <mxGeometry width="30" height="30" as="geometry" />
        </mxCell>
        <mxCell id="lxXlL9rtx9yhcYXsZA4L-33" value="id" style="shape=partialRectangle;connectable=0;fillColor=none;top=0;left=0;bottom=0;right=0;align=left;spacingLeft=6;fontStyle=5;overflow=hidden;" vertex="1" parent="lxXlL9rtx9yhcYXsZA4L-31">
          <mxGeometry x="30" width="150" height="30" as="geometry" />
        </mxCell>
        <mxCell id="lxXlL9rtx9yhcYXsZA4L-34" value="" style="shape=partialRectangle;collapsible=0;dropTarget=0;pointerEvents=0;fillColor=none;top=0;left=0;bottom=0;right=0;points=[[0,0.5],[1,0.5]];portConstraint=eastwest;" vertex="1" parent="lxXlL9rtx9yhcYXsZA4L-30">
          <mxGeometry y="60" width="180" height="30" as="geometry" />
        </mxCell>
        <mxCell id="lxXlL9rtx9yhcYXsZA4L-35" value="" style="shape=partialRectangle;connectable=0;fillColor=none;top=0;left=0;bottom=0;right=0;editable=1;overflow=hidden;" vertex="1" parent="lxXlL9rtx9yhcYXsZA4L-34">
          <mxGeometry width="30" height="30" as="geometry" />
        </mxCell>
        <mxCell id="lxXlL9rtx9yhcYXsZA4L-36" value="first_name" style="shape=partialRectangle;connectable=0;fillColor=none;top=0;left=0;bottom=0;right=0;align=left;spacingLeft=6;overflow=hidden;" vertex="1" parent="lxXlL9rtx9yhcYXsZA4L-34">
          <mxGeometry x="30" width="150" height="30" as="geometry" />
        </mxCell>
        <mxCell id="lxXlL9rtx9yhcYXsZA4L-37" value="" style="shape=partialRectangle;collapsible=0;dropTarget=0;pointerEvents=0;fillColor=none;top=0;left=0;bottom=0;right=0;points=[[0,0.5],[1,0.5]];portConstraint=eastwest;" vertex="1" parent="lxXlL9rtx9yhcYXsZA4L-30">
          <mxGeometry y="90" width="180" height="30" as="geometry" />
        </mxCell>
        <mxCell id="lxXlL9rtx9yhcYXsZA4L-38" value="" style="shape=partialRectangle;connectable=0;fillColor=none;top=0;left=0;bottom=0;right=0;editable=1;overflow=hidden;" vertex="1" parent="lxXlL9rtx9yhcYXsZA4L-37">
          <mxGeometry width="30" height="30" as="geometry" />
        </mxCell>
        <mxCell id="lxXlL9rtx9yhcYXsZA4L-39" value="last_name" style="shape=partialRectangle;connectable=0;fillColor=none;top=0;left=0;bottom=0;right=0;align=left;spacingLeft=6;overflow=hidden;" vertex="1" parent="lxXlL9rtx9yhcYXsZA4L-37">
          <mxGeometry x="30" width="150" height="30" as="geometry" />
        </mxCell>
        <mxCell id="lxXlL9rtx9yhcYXsZA4L-43" value="customer_cars" style="shape=table;startSize=30;container=1;collapsible=1;childLayout=tableLayout;fixedRows=1;rowLines=0;fontStyle=1;align=center;resizeLast=1;" vertex="1" parent="1">
          <mxGeometry x="300" y="530" width="180" height="130" as="geometry" />
        </mxCell>
        <mxCell id="lxXlL9rtx9yhcYXsZA4L-44" value="" style="shape=partialRectangle;collapsible=0;dropTarget=0;pointerEvents=0;fillColor=none;top=0;left=0;bottom=1;right=0;points=[[0,0.5],[1,0.5]];portConstraint=eastwest;" vertex="1" parent="lxXlL9rtx9yhcYXsZA4L-43">
          <mxGeometry y="30" width="180" height="30" as="geometry" />
        </mxCell>
        <mxCell id="lxXlL9rtx9yhcYXsZA4L-45" value="PK" style="shape=partialRectangle;connectable=0;fillColor=none;top=0;left=0;bottom=0;right=0;fontStyle=1;overflow=hidden;" vertex="1" parent="lxXlL9rtx9yhcYXsZA4L-44">
          <mxGeometry width="30" height="30" as="geometry" />
        </mxCell>
        <mxCell id="lxXlL9rtx9yhcYXsZA4L-46" value="id" style="shape=partialRectangle;connectable=0;fillColor=none;top=0;left=0;bottom=0;right=0;align=left;spacingLeft=6;fontStyle=5;overflow=hidden;" vertex="1" parent="lxXlL9rtx9yhcYXsZA4L-44">
          <mxGeometry x="30" width="150" height="30" as="geometry" />
        </mxCell>
        <mxCell id="lxXlL9rtx9yhcYXsZA4L-47" value="" style="shape=partialRectangle;collapsible=0;dropTarget=0;pointerEvents=0;fillColor=none;top=0;left=0;bottom=0;right=0;points=[[0,0.5],[1,0.5]];portConstraint=eastwest;" vertex="1" parent="lxXlL9rtx9yhcYXsZA4L-43">
          <mxGeometry y="60" width="180" height="30" as="geometry" />
        </mxCell>
        <mxCell id="lxXlL9rtx9yhcYXsZA4L-48" value="" style="shape=partialRectangle;connectable=0;fillColor=none;top=0;left=0;bottom=0;right=0;editable=1;overflow=hidden;" vertex="1" parent="lxXlL9rtx9yhcYXsZA4L-47">
          <mxGeometry width="30" height="30" as="geometry" />
        </mxCell>
        <mxCell id="lxXlL9rtx9yhcYXsZA4L-49" value="customer_id" style="shape=partialRectangle;connectable=0;fillColor=none;top=0;left=0;bottom=0;right=0;align=left;spacingLeft=6;overflow=hidden;" vertex="1" parent="lxXlL9rtx9yhcYXsZA4L-47">
          <mxGeometry x="30" width="150" height="30" as="geometry" />
        </mxCell>
        <mxCell id="lxXlL9rtx9yhcYXsZA4L-50" value="" style="shape=partialRectangle;collapsible=0;dropTarget=0;pointerEvents=0;fillColor=none;top=0;left=0;bottom=0;right=0;points=[[0,0.5],[1,0.5]];portConstraint=eastwest;" vertex="1" parent="lxXlL9rtx9yhcYXsZA4L-43">
          <mxGeometry y="90" width="180" height="30" as="geometry" />
        </mxCell>
        <mxCell id="lxXlL9rtx9yhcYXsZA4L-51" value="" style="shape=partialRectangle;connectable=0;fillColor=none;top=0;left=0;bottom=0;right=0;editable=1;overflow=hidden;" vertex="1" parent="lxXlL9rtx9yhcYXsZA4L-50">
          <mxGeometry width="30" height="30" as="geometry" />
        </mxCell>
        <mxCell id="lxXlL9rtx9yhcYXsZA4L-52" value="car_id" style="shape=partialRectangle;connectable=0;fillColor=none;top=0;left=0;bottom=0;right=0;align=left;spacingLeft=6;overflow=hidden;" vertex="1" parent="lxXlL9rtx9yhcYXsZA4L-50">
          <mxGeometry x="30" width="150" height="30" as="geometry" />
        </mxCell>
        <mxCell id="lxXlL9rtx9yhcYXsZA4L-56" value="" style="edgeStyle=entityRelationEdgeStyle;fontSize=12;html=1;endArrow=ERoneToMany;entryX=-0.022;entryY=0.267;entryDx=0;entryDy=0;entryPerimeter=0;" edge="1" parent="1" target="lxXlL9rtx9yhcYXsZA4L-31">
          <mxGeometry width="100" height="100" relative="1" as="geometry">
            <mxPoint x="280" y="200" as="sourcePoint" />
            <mxPoint x="380" y="100" as="targetPoint" />
          </mxGeometry>
        </mxCell>
        <mxCell id="lxXlL9rtx9yhcYXsZA4L-57" value="" style="edgeStyle=entityRelationEdgeStyle;fontSize=12;html=1;endArrow=ERoneToMany;exitX=0;exitY=0.5;exitDx=0;exitDy=0;" edge="1" parent="1" source="lxXlL9rtx9yhcYXsZA4L-44">
          <mxGeometry width="100" height="100" relative="1" as="geometry">
            <mxPoint y="300" as="sourcePoint" />
            <mxPoint x="100" y="200" as="targetPoint" />
          </mxGeometry>
        </mxCell>
        <mxCell id="lxXlL9rtx9yhcYXsZA4L-58" value="" style="edgeStyle=entityRelationEdgeStyle;fontSize=12;html=1;endArrow=ERoneToMany;entryX=1;entryY=0.5;entryDx=0;entryDy=0;exitX=1;exitY=0.5;exitDx=0;exitDy=0;" edge="1" parent="1" source="lxXlL9rtx9yhcYXsZA4L-44" target="lxXlL9rtx9yhcYXsZA4L-31">
          <mxGeometry width="100" height="100" relative="1" as="geometry">
            <mxPoint x="370" y="460" as="sourcePoint" />
            <mxPoint x="470" y="360" as="targetPoint" />
          </mxGeometry>
        </mxCell>
      </root>
    </mxGraphModel>
  </diagram>
</mxfile>
